<mxfile host="app.diagrams.net" modified="2023-04-13T09:14:03.912Z" agent="Mozilla/5.0 (Windows NT 10.0; Win64; x64) AppleWebKit/537.36 (KHTML, like Gecko) Chrome/111.0.0.0 Safari/537.36" etag="XthYWNjDgWKDcsGNcSTb" version="21.1.7" type="device" pages="2">
  <diagram name="페이지-1" id="QDkQzYOrJgHoFqMf90wP">
    <mxGraphModel dx="1375" dy="918" grid="1" gridSize="10" guides="1" tooltips="1" connect="1" arrows="1" fold="1" page="1" pageScale="1" pageWidth="827" pageHeight="1169" math="0" shadow="0">
      <root>
        <mxCell id="0" />
        <mxCell id="1" parent="0" />
        <mxCell id="HtBS1adQrMJH_rp9_GLz-13" style="edgeStyle=orthogonalEdgeStyle;rounded=0;orthogonalLoop=1;jettySize=auto;html=1;entryX=0.5;entryY=0;entryDx=0;entryDy=0;" edge="1" parent="1" source="HtBS1adQrMJH_rp9_GLz-11" target="HtBS1adQrMJH_rp9_GLz-12">
          <mxGeometry relative="1" as="geometry" />
        </mxCell>
        <mxCell id="HtBS1adQrMJH_rp9_GLz-11" value="시작" style="strokeWidth=2;html=1;shape=mxgraph.flowchart.terminator;whiteSpace=wrap;" vertex="1" parent="1">
          <mxGeometry x="60" y="40" width="100" height="40" as="geometry" />
        </mxCell>
        <mxCell id="HtBS1adQrMJH_rp9_GLz-15" style="edgeStyle=orthogonalEdgeStyle;rounded=0;orthogonalLoop=1;jettySize=auto;html=1;exitX=0.5;exitY=1;exitDx=0;exitDy=0;entryX=0.5;entryY=0;entryDx=0;entryDy=0;" edge="1" parent="1" source="HtBS1adQrMJH_rp9_GLz-12" target="HtBS1adQrMJH_rp9_GLz-14">
          <mxGeometry relative="1" as="geometry" />
        </mxCell>
        <mxCell id="HtBS1adQrMJH_rp9_GLz-12" value="datebase &lt;br&gt;게시글 정보 획득" style="rounded=1;whiteSpace=wrap;html=1;absoluteArcSize=1;arcSize=14;strokeWidth=2;" vertex="1" parent="1">
          <mxGeometry x="50" y="110" width="120" height="50" as="geometry" />
        </mxCell>
        <mxCell id="HtBS1adQrMJH_rp9_GLz-18" style="edgeStyle=orthogonalEdgeStyle;rounded=0;orthogonalLoop=1;jettySize=auto;html=1;exitX=0.5;exitY=1;exitDx=0;exitDy=0;entryX=0.5;entryY=0;entryDx=0;entryDy=0;entryPerimeter=0;" edge="1" parent="1" source="HtBS1adQrMJH_rp9_GLz-14" target="HtBS1adQrMJH_rp9_GLz-17">
          <mxGeometry relative="1" as="geometry" />
        </mxCell>
        <mxCell id="HtBS1adQrMJH_rp9_GLz-14" value="화면출력" style="rounded=1;whiteSpace=wrap;html=1;absoluteArcSize=1;arcSize=14;strokeWidth=2;" vertex="1" parent="1">
          <mxGeometry x="60" y="190" width="100" height="40" as="geometry" />
        </mxCell>
        <mxCell id="HtBS1adQrMJH_rp9_GLz-17" value="종료" style="strokeWidth=2;html=1;shape=mxgraph.flowchart.terminator;whiteSpace=wrap;" vertex="1" parent="1">
          <mxGeometry x="60" y="280" width="100" height="40" as="geometry" />
        </mxCell>
        <mxCell id="HtBS1adQrMJH_rp9_GLz-31" style="edgeStyle=orthogonalEdgeStyle;rounded=0;orthogonalLoop=1;jettySize=auto;html=1;exitX=0.5;exitY=1;exitDx=0;exitDy=0;exitPerimeter=0;entryX=0.5;entryY=0;entryDx=0;entryDy=0;" edge="1" parent="1" source="HtBS1adQrMJH_rp9_GLz-19" target="HtBS1adQrMJH_rp9_GLz-30">
          <mxGeometry relative="1" as="geometry" />
        </mxCell>
        <mxCell id="HtBS1adQrMJH_rp9_GLz-19" value="출근" style="strokeWidth=2;html=1;shape=mxgraph.flowchart.terminator;whiteSpace=wrap;" vertex="1" parent="1">
          <mxGeometry x="500" y="40" width="100" height="40" as="geometry" />
        </mxCell>
        <mxCell id="HtBS1adQrMJH_rp9_GLz-38" style="edgeStyle=orthogonalEdgeStyle;rounded=0;orthogonalLoop=1;jettySize=auto;html=1;exitX=0.5;exitY=1;exitDx=0;exitDy=0;entryX=0.5;entryY=0;entryDx=0;entryDy=0;" edge="1" parent="1" source="HtBS1adQrMJH_rp9_GLz-21" target="HtBS1adQrMJH_rp9_GLz-37">
          <mxGeometry relative="1" as="geometry" />
        </mxCell>
        <mxCell id="HtBS1adQrMJH_rp9_GLz-21" value="1층도착" style="rounded=1;whiteSpace=wrap;html=1;absoluteArcSize=1;arcSize=14;strokeWidth=2;" vertex="1" parent="1">
          <mxGeometry x="500" y="320" width="100" height="40" as="geometry" />
        </mxCell>
        <mxCell id="HtBS1adQrMJH_rp9_GLz-23" value="엘리베이터&lt;br&gt;도착하였는가?" style="strokeWidth=2;html=1;shape=mxgraph.flowchart.decision;whiteSpace=wrap;" vertex="1" parent="1">
          <mxGeometry x="490" y="200" width="120" height="80" as="geometry" />
        </mxCell>
        <mxCell id="HtBS1adQrMJH_rp9_GLz-36" style="edgeStyle=orthogonalEdgeStyle;rounded=0;orthogonalLoop=1;jettySize=auto;html=1;exitX=0.5;exitY=1;exitDx=0;exitDy=0;entryX=0.5;entryY=0;entryDx=0;entryDy=0;entryPerimeter=0;" edge="1" parent="1" source="HtBS1adQrMJH_rp9_GLz-30" target="HtBS1adQrMJH_rp9_GLz-23">
          <mxGeometry relative="1" as="geometry" />
        </mxCell>
        <mxCell id="HtBS1adQrMJH_rp9_GLz-30" value="엘리베이터&lt;br&gt;탑승 대기" style="rounded=1;whiteSpace=wrap;html=1;absoluteArcSize=1;arcSize=14;strokeWidth=2;" vertex="1" parent="1">
          <mxGeometry x="500" y="110" width="100" height="50" as="geometry" />
        </mxCell>
        <mxCell id="HtBS1adQrMJH_rp9_GLz-32" value="" style="endArrow=classic;html=1;rounded=0;exitX=0.5;exitY=1;exitDx=0;exitDy=0;exitPerimeter=0;entryX=0.5;entryY=0;entryDx=0;entryDy=0;" edge="1" parent="1" source="HtBS1adQrMJH_rp9_GLz-23" target="HtBS1adQrMJH_rp9_GLz-21">
          <mxGeometry relative="1" as="geometry">
            <mxPoint x="260" y="270" as="sourcePoint" />
            <mxPoint x="350" y="280" as="targetPoint" />
          </mxGeometry>
        </mxCell>
        <mxCell id="HtBS1adQrMJH_rp9_GLz-33" value="&lt;font style=&quot;font-size: 13px;&quot;&gt;YES&lt;/font&gt;" style="edgeLabel;resizable=0;html=1;align=center;verticalAlign=middle;" connectable="0" vertex="1" parent="HtBS1adQrMJH_rp9_GLz-32">
          <mxGeometry relative="1" as="geometry" />
        </mxCell>
        <mxCell id="HtBS1adQrMJH_rp9_GLz-34" value="" style="endArrow=classic;html=1;rounded=0;exitX=1;exitY=0.5;exitDx=0;exitDy=0;exitPerimeter=0;entryX=1;entryY=0.5;entryDx=0;entryDy=0;" edge="1" parent="1" source="HtBS1adQrMJH_rp9_GLz-23" target="HtBS1adQrMJH_rp9_GLz-30">
          <mxGeometry relative="1" as="geometry">
            <mxPoint x="260" y="380" as="sourcePoint" />
            <mxPoint x="360" y="380" as="targetPoint" />
            <Array as="points">
              <mxPoint x="650" y="240" />
              <mxPoint x="650" y="135" />
            </Array>
          </mxGeometry>
        </mxCell>
        <mxCell id="HtBS1adQrMJH_rp9_GLz-35" value="&lt;font style=&quot;font-size: 13px;&quot;&gt;NO&lt;/font&gt;" style="edgeLabel;resizable=0;html=1;align=center;verticalAlign=middle;" connectable="0" vertex="1" parent="HtBS1adQrMJH_rp9_GLz-34">
          <mxGeometry relative="1" as="geometry" />
        </mxCell>
        <mxCell id="HtBS1adQrMJH_rp9_GLz-41" style="edgeStyle=orthogonalEdgeStyle;rounded=0;orthogonalLoop=1;jettySize=auto;html=1;exitX=0.5;exitY=1;exitDx=0;exitDy=0;entryX=0.5;entryY=0;entryDx=0;entryDy=0;" edge="1" parent="1" source="HtBS1adQrMJH_rp9_GLz-37" target="HtBS1adQrMJH_rp9_GLz-40">
          <mxGeometry relative="1" as="geometry" />
        </mxCell>
        <mxCell id="HtBS1adQrMJH_rp9_GLz-37" value="학원 도착" style="rounded=1;whiteSpace=wrap;html=1;absoluteArcSize=1;arcSize=14;strokeWidth=2;" vertex="1" parent="1">
          <mxGeometry x="500" y="400" width="100" height="40" as="geometry" />
        </mxCell>
        <mxCell id="HtBS1adQrMJH_rp9_GLz-39" value="행정실에&lt;br&gt;일이 있는가?" style="strokeWidth=2;html=1;shape=mxgraph.flowchart.decision;whiteSpace=wrap;" vertex="1" parent="1">
          <mxGeometry x="500" y="550" width="100" height="100" as="geometry" />
        </mxCell>
        <mxCell id="HtBS1adQrMJH_rp9_GLz-74" style="edgeStyle=orthogonalEdgeStyle;rounded=0;orthogonalLoop=1;jettySize=auto;html=1;exitX=0.5;exitY=1;exitDx=0;exitDy=0;entryX=0.5;entryY=0;entryDx=0;entryDy=0;entryPerimeter=0;" edge="1" parent="1" source="HtBS1adQrMJH_rp9_GLz-40" target="HtBS1adQrMJH_rp9_GLz-39">
          <mxGeometry relative="1" as="geometry" />
        </mxCell>
        <mxCell id="HtBS1adQrMJH_rp9_GLz-40" value="행정실 도착" style="rounded=1;whiteSpace=wrap;html=1;absoluteArcSize=1;arcSize=14;strokeWidth=2;" vertex="1" parent="1">
          <mxGeometry x="500" y="470" width="100" height="40" as="geometry" />
        </mxCell>
        <mxCell id="HtBS1adQrMJH_rp9_GLz-77" style="edgeStyle=orthogonalEdgeStyle;rounded=0;orthogonalLoop=1;jettySize=auto;html=1;exitX=0.5;exitY=1;exitDx=0;exitDy=0;entryX=0.5;entryY=0;entryDx=0;entryDy=0;entryPerimeter=0;" edge="1" parent="1" source="HtBS1adQrMJH_rp9_GLz-43" target="HtBS1adQrMJH_rp9_GLz-72">
          <mxGeometry relative="1" as="geometry" />
        </mxCell>
        <mxCell id="HtBS1adQrMJH_rp9_GLz-43" value="506호" style="rounded=1;whiteSpace=wrap;html=1;absoluteArcSize=1;arcSize=14;strokeWidth=2;" vertex="1" parent="1">
          <mxGeometry x="500" y="710" width="100" height="40" as="geometry" />
        </mxCell>
        <mxCell id="HtBS1adQrMJH_rp9_GLz-67" style="edgeStyle=orthogonalEdgeStyle;rounded=0;orthogonalLoop=1;jettySize=auto;html=1;exitX=0.5;exitY=1;exitDx=0;exitDy=0;entryX=0.5;entryY=0;entryDx=0;entryDy=0;entryPerimeter=0;" edge="1" parent="1" source="HtBS1adQrMJH_rp9_GLz-44" target="HtBS1adQrMJH_rp9_GLz-66">
          <mxGeometry relative="1" as="geometry" />
        </mxCell>
        <mxCell id="HtBS1adQrMJH_rp9_GLz-44" value="행정실에서 대화" style="rounded=1;whiteSpace=wrap;html=1;absoluteArcSize=1;arcSize=14;strokeWidth=2;" vertex="1" parent="1">
          <mxGeometry x="280" y="580" width="100" height="40" as="geometry" />
        </mxCell>
        <mxCell id="HtBS1adQrMJH_rp9_GLz-62" value="" style="endArrow=classic;html=1;rounded=0;exitX=1;exitY=0.5;exitDx=0;exitDy=0;exitPerimeter=0;entryX=0;entryY=0.5;entryDx=0;entryDy=0;" edge="1" parent="1" source="HtBS1adQrMJH_rp9_GLz-66" target="HtBS1adQrMJH_rp9_GLz-43">
          <mxGeometry relative="1" as="geometry">
            <mxPoint x="340" y="730" as="sourcePoint" />
            <mxPoint x="340" y="800" as="targetPoint" />
            <Array as="points" />
          </mxGeometry>
        </mxCell>
        <mxCell id="HtBS1adQrMJH_rp9_GLz-64" value="" style="endArrow=classic;html=1;rounded=0;exitX=0;exitY=0.5;exitDx=0;exitDy=0;exitPerimeter=0;entryX=1;entryY=0.5;entryDx=0;entryDy=0;" edge="1" parent="1" source="HtBS1adQrMJH_rp9_GLz-39" target="HtBS1adQrMJH_rp9_GLz-44">
          <mxGeometry relative="1" as="geometry">
            <mxPoint x="90" y="470" as="sourcePoint" />
            <mxPoint x="220" y="520" as="targetPoint" />
            <Array as="points">
              <mxPoint x="450" y="600" />
            </Array>
          </mxGeometry>
        </mxCell>
        <mxCell id="HtBS1adQrMJH_rp9_GLz-65" value="&lt;font style=&quot;font-size: 13px;&quot;&gt;YES&lt;/font&gt;" style="edgeLabel;resizable=0;html=1;align=center;verticalAlign=middle;" connectable="0" vertex="1" parent="HtBS1adQrMJH_rp9_GLz-64">
          <mxGeometry relative="1" as="geometry" />
        </mxCell>
        <mxCell id="HtBS1adQrMJH_rp9_GLz-66" value="일이 끝났는가?" style="strokeWidth=2;html=1;shape=mxgraph.flowchart.decision;whiteSpace=wrap;" vertex="1" parent="1">
          <mxGeometry x="280" y="680" width="100" height="100" as="geometry" />
        </mxCell>
        <mxCell id="HtBS1adQrMJH_rp9_GLz-70" value="" style="endArrow=classic;html=1;rounded=0;exitX=0;exitY=0.5;exitDx=0;exitDy=0;exitPerimeter=0;entryX=0;entryY=0.5;entryDx=0;entryDy=0;" edge="1" parent="1" source="HtBS1adQrMJH_rp9_GLz-66" target="HtBS1adQrMJH_rp9_GLz-44">
          <mxGeometry relative="1" as="geometry">
            <mxPoint x="255" y="755" as="sourcePoint" />
            <mxPoint x="425" y="865" as="targetPoint" />
            <Array as="points">
              <mxPoint x="240" y="730" />
              <mxPoint x="240" y="600" />
            </Array>
          </mxGeometry>
        </mxCell>
        <mxCell id="HtBS1adQrMJH_rp9_GLz-71" value="&lt;font style=&quot;font-size: 13px;&quot;&gt;NO&lt;/font&gt;" style="edgeLabel;resizable=0;html=1;align=center;verticalAlign=middle;" connectable="0" vertex="1" parent="HtBS1adQrMJH_rp9_GLz-70">
          <mxGeometry relative="1" as="geometry">
            <mxPoint y="-2" as="offset" />
          </mxGeometry>
        </mxCell>
        <mxCell id="HtBS1adQrMJH_rp9_GLz-72" value="퇴근" style="strokeWidth=2;html=1;shape=mxgraph.flowchart.terminator;whiteSpace=wrap;" vertex="1" parent="1">
          <mxGeometry x="500" y="800" width="100" height="40" as="geometry" />
        </mxCell>
        <mxCell id="HtBS1adQrMJH_rp9_GLz-75" value="" style="endArrow=classic;html=1;rounded=0;exitX=0.5;exitY=1;exitDx=0;exitDy=0;exitPerimeter=0;entryX=0.5;entryY=0;entryDx=0;entryDy=0;" edge="1" parent="1" source="HtBS1adQrMJH_rp9_GLz-39" target="HtBS1adQrMJH_rp9_GLz-43">
          <mxGeometry relative="1" as="geometry">
            <mxPoint x="710" y="720" as="sourcePoint" />
            <mxPoint x="710" y="590" as="targetPoint" />
            <Array as="points">
              <mxPoint x="550" y="690" />
            </Array>
          </mxGeometry>
        </mxCell>
        <mxCell id="HtBS1adQrMJH_rp9_GLz-76" value="&lt;font style=&quot;font-size: 13px;&quot;&gt;NO&lt;/font&gt;" style="edgeLabel;resizable=0;html=1;align=center;verticalAlign=middle;" connectable="0" vertex="1" parent="HtBS1adQrMJH_rp9_GLz-75">
          <mxGeometry relative="1" as="geometry">
            <mxPoint y="-2" as="offset" />
          </mxGeometry>
        </mxCell>
        <mxCell id="blKp9GJWnUR5wqltx84o-1" value="&lt;font style=&quot;font-size: 13px;&quot;&gt;YES&lt;/font&gt;" style="edgeLabel;resizable=0;html=1;align=center;verticalAlign=middle;" connectable="0" vertex="1" parent="1">
          <mxGeometry x="450" y="610" as="geometry">
            <mxPoint x="-16" y="115" as="offset" />
          </mxGeometry>
        </mxCell>
      </root>
    </mxGraphModel>
  </diagram>
  <diagram id="E5-w6nRHZv_qLay-nfDl" name="페이지-2">
    <mxGraphModel dx="1375" dy="918" grid="1" gridSize="10" guides="1" tooltips="1" connect="1" arrows="1" fold="1" page="1" pageScale="1" pageWidth="827" pageHeight="1169" math="0" shadow="0">
      <root>
        <mxCell id="0" />
        <mxCell id="1" parent="0" />
        <mxCell id="3FaKsmlRmpgeOZ_CDOqT-2" style="edgeStyle=orthogonalEdgeStyle;rounded=0;orthogonalLoop=1;jettySize=auto;html=1;exitX=0.5;exitY=1;exitDx=0;exitDy=0;exitPerimeter=0;entryX=0.5;entryY=0;entryDx=0;entryDy=0;" edge="1" parent="1" source="VYh9u7z4FJAAEZbo5EUL-1" target="3FaKsmlRmpgeOZ_CDOqT-1">
          <mxGeometry relative="1" as="geometry" />
        </mxCell>
        <mxCell id="VYh9u7z4FJAAEZbo5EUL-1" value="기상" style="strokeWidth=2;html=1;shape=mxgraph.flowchart.terminator;whiteSpace=wrap;" vertex="1" parent="1">
          <mxGeometry x="364" y="90" width="100" height="40" as="geometry" />
        </mxCell>
        <mxCell id="VYh9u7z4FJAAEZbo5EUL-2" value="입실" style="strokeWidth=2;html=1;shape=mxgraph.flowchart.terminator;whiteSpace=wrap;" vertex="1" parent="1">
          <mxGeometry x="364" y="920" width="100" height="40" as="geometry" />
        </mxCell>
        <mxCell id="hEM89JSzSN5NCbOSaYS6-4" style="edgeStyle=orthogonalEdgeStyle;rounded=0;orthogonalLoop=1;jettySize=auto;html=1;exitX=0.5;exitY=1;exitDx=0;exitDy=0;entryX=0.5;entryY=0;entryDx=0;entryDy=0;" edge="1" parent="1" source="3FaKsmlRmpgeOZ_CDOqT-1" target="hEM89JSzSN5NCbOSaYS6-3">
          <mxGeometry relative="1" as="geometry" />
        </mxCell>
        <mxCell id="3FaKsmlRmpgeOZ_CDOqT-1" value="지하철역으로&lt;br&gt;출발" style="rounded=1;whiteSpace=wrap;html=1;absoluteArcSize=1;arcSize=14;strokeWidth=2;" vertex="1" parent="1">
          <mxGeometry x="364" y="170" width="100" height="50" as="geometry" />
        </mxCell>
        <mxCell id="td-_Ye8Xfd8cVU-KX_9y-6" style="edgeStyle=orthogonalEdgeStyle;rounded=0;orthogonalLoop=1;jettySize=auto;html=1;exitX=0.5;exitY=1;exitDx=0;exitDy=0;entryX=0.5;entryY=0;entryDx=0;entryDy=0;entryPerimeter=0;" edge="1" parent="1" source="3FaKsmlRmpgeOZ_CDOqT-3" target="td-_Ye8Xfd8cVU-KX_9y-3">
          <mxGeometry relative="1" as="geometry" />
        </mxCell>
        <mxCell id="3FaKsmlRmpgeOZ_CDOqT-3" value="학원으로&lt;br&gt;출발" style="rounded=1;whiteSpace=wrap;html=1;absoluteArcSize=1;arcSize=14;strokeWidth=2;" vertex="1" parent="1">
          <mxGeometry x="364" y="500" width="100" height="50" as="geometry" />
        </mxCell>
        <mxCell id="3FaKsmlRmpgeOZ_CDOqT-6" value="지하철이&lt;br&gt;도착했는가?" style="strokeWidth=2;html=1;shape=mxgraph.flowchart.decision;whiteSpace=wrap;" vertex="1" parent="1">
          <mxGeometry x="357" y="350" width="114" height="100" as="geometry" />
        </mxCell>
        <mxCell id="p_X3v1UPtjzqYKdCuxfT-1" value="" style="endArrow=classic;html=1;rounded=0;exitX=1;exitY=0.5;exitDx=0;exitDy=0;exitPerimeter=0;entryX=1;entryY=0.5;entryDx=0;entryDy=0;" edge="1" parent="1" source="3FaKsmlRmpgeOZ_CDOqT-6" target="hEM89JSzSN5NCbOSaYS6-3">
          <mxGeometry relative="1" as="geometry">
            <mxPoint x="610" y="240" as="sourcePoint" />
            <mxPoint x="600" y="135" as="targetPoint" />
            <Array as="points">
              <mxPoint x="550" y="400" />
              <mxPoint x="550" y="285" />
            </Array>
          </mxGeometry>
        </mxCell>
        <mxCell id="p_X3v1UPtjzqYKdCuxfT-2" value="&lt;font style=&quot;font-size: 13px;&quot;&gt;NO&lt;/font&gt;" style="edgeLabel;resizable=0;html=1;align=center;verticalAlign=middle;" connectable="0" vertex="1" parent="p_X3v1UPtjzqYKdCuxfT-1">
          <mxGeometry relative="1" as="geometry" />
        </mxCell>
        <mxCell id="hEM89JSzSN5NCbOSaYS6-5" style="edgeStyle=orthogonalEdgeStyle;rounded=0;orthogonalLoop=1;jettySize=auto;html=1;exitX=0.5;exitY=1;exitDx=0;exitDy=0;entryX=0.5;entryY=0;entryDx=0;entryDy=0;entryPerimeter=0;" edge="1" parent="1" source="hEM89JSzSN5NCbOSaYS6-3" target="3FaKsmlRmpgeOZ_CDOqT-6">
          <mxGeometry relative="1" as="geometry" />
        </mxCell>
        <mxCell id="hEM89JSzSN5NCbOSaYS6-3" value="지하철역&lt;br&gt;대기" style="rounded=1;whiteSpace=wrap;html=1;absoluteArcSize=1;arcSize=14;strokeWidth=2;" vertex="1" parent="1">
          <mxGeometry x="364" y="260" width="100" height="50" as="geometry" />
        </mxCell>
        <mxCell id="td-_Ye8Xfd8cVU-KX_9y-1" value="" style="endArrow=classic;html=1;rounded=0;exitX=0.5;exitY=1;exitDx=0;exitDy=0;exitPerimeter=0;entryX=0.5;entryY=0;entryDx=0;entryDy=0;" edge="1" parent="1" source="3FaKsmlRmpgeOZ_CDOqT-6" target="3FaKsmlRmpgeOZ_CDOqT-3">
          <mxGeometry relative="1" as="geometry">
            <mxPoint x="500" y="600" as="sourcePoint" />
            <mxPoint x="380" y="600" as="targetPoint" />
            <Array as="points" />
          </mxGeometry>
        </mxCell>
        <mxCell id="td-_Ye8Xfd8cVU-KX_9y-2" value="&lt;font style=&quot;font-size: 13px;&quot;&gt;YES&lt;/font&gt;" style="edgeLabel;resizable=0;html=1;align=center;verticalAlign=middle;" connectable="0" vertex="1" parent="td-_Ye8Xfd8cVU-KX_9y-1">
          <mxGeometry relative="1" as="geometry" />
        </mxCell>
        <mxCell id="td-_Ye8Xfd8cVU-KX_9y-3" value="8시 53분&lt;br&gt;이전에 탔는가?" style="strokeWidth=2;html=1;shape=mxgraph.flowchart.decision;whiteSpace=wrap;" vertex="1" parent="1">
          <mxGeometry x="364" y="585" width="100" height="100" as="geometry" />
        </mxCell>
        <mxCell id="td-_Ye8Xfd8cVU-KX_9y-15" style="edgeStyle=orthogonalEdgeStyle;rounded=0;orthogonalLoop=1;jettySize=auto;html=1;exitX=0.5;exitY=1;exitDx=0;exitDy=0;entryX=0.5;entryY=0;entryDx=0;entryDy=0;" edge="1" parent="1" source="td-_Ye8Xfd8cVU-KX_9y-4" target="td-_Ye8Xfd8cVU-KX_9y-12">
          <mxGeometry relative="1" as="geometry" />
        </mxCell>
        <mxCell id="td-_Ye8Xfd8cVU-KX_9y-4" value="중앙로역 도착" style="rounded=1;whiteSpace=wrap;html=1;absoluteArcSize=1;arcSize=14;strokeWidth=2;" vertex="1" parent="1">
          <mxGeometry x="364" y="750" width="100" height="50" as="geometry" />
        </mxCell>
        <mxCell id="td-_Ye8Xfd8cVU-KX_9y-7" value="" style="endArrow=classic;html=1;rounded=0;exitX=0.5;exitY=1;exitDx=0;exitDy=0;exitPerimeter=0;entryX=0.5;entryY=0;entryDx=0;entryDy=0;" edge="1" parent="1" source="td-_Ye8Xfd8cVU-KX_9y-3" target="td-_Ye8Xfd8cVU-KX_9y-4">
          <mxGeometry relative="1" as="geometry">
            <mxPoint x="637" y="685" as="sourcePoint" />
            <mxPoint x="630" y="570" as="targetPoint" />
            <Array as="points">
              <mxPoint x="414" y="700" />
            </Array>
          </mxGeometry>
        </mxCell>
        <mxCell id="td-_Ye8Xfd8cVU-KX_9y-8" value="&lt;font style=&quot;font-size: 13px;&quot;&gt;NO&lt;/font&gt;" style="edgeLabel;resizable=0;html=1;align=center;verticalAlign=middle;" connectable="0" vertex="1" parent="td-_Ye8Xfd8cVU-KX_9y-7">
          <mxGeometry relative="1" as="geometry" />
        </mxCell>
        <mxCell id="td-_Ye8Xfd8cVU-KX_9y-9" value="" style="endArrow=classic;html=1;rounded=0;exitX=1;exitY=0.5;exitDx=0;exitDy=0;exitPerimeter=0;entryX=0;entryY=0.5;entryDx=0;entryDy=0;" edge="1" parent="1" source="td-_Ye8Xfd8cVU-KX_9y-3" target="td-_Ye8Xfd8cVU-KX_9y-11">
          <mxGeometry relative="1" as="geometry">
            <mxPoint x="596" y="670" as="sourcePoint" />
            <mxPoint x="550" y="635" as="targetPoint" />
            <Array as="points" />
          </mxGeometry>
        </mxCell>
        <mxCell id="td-_Ye8Xfd8cVU-KX_9y-10" value="&lt;font style=&quot;font-size: 13px;&quot;&gt;YES&lt;/font&gt;" style="edgeLabel;resizable=0;html=1;align=center;verticalAlign=middle;" connectable="0" vertex="1" parent="td-_Ye8Xfd8cVU-KX_9y-9">
          <mxGeometry relative="1" as="geometry" />
        </mxCell>
        <mxCell id="td-_Ye8Xfd8cVU-KX_9y-14" style="edgeStyle=orthogonalEdgeStyle;rounded=0;orthogonalLoop=1;jettySize=auto;html=1;exitX=0.5;exitY=1;exitDx=0;exitDy=0;entryX=0.5;entryY=0;entryDx=0;entryDy=0;" edge="1" parent="1" source="td-_Ye8Xfd8cVU-KX_9y-11" target="td-_Ye8Xfd8cVU-KX_9y-13">
          <mxGeometry relative="1" as="geometry" />
        </mxCell>
        <mxCell id="td-_Ye8Xfd8cVU-KX_9y-11" value="반월당역 도착" style="rounded=1;whiteSpace=wrap;html=1;absoluteArcSize=1;arcSize=14;strokeWidth=2;" vertex="1" parent="1">
          <mxGeometry x="550" y="610" width="100" height="50" as="geometry" />
        </mxCell>
        <mxCell id="td-_Ye8Xfd8cVU-KX_9y-17" style="edgeStyle=orthogonalEdgeStyle;rounded=0;orthogonalLoop=1;jettySize=auto;html=1;exitX=0.5;exitY=1;exitDx=0;exitDy=0;entryX=0.5;entryY=0;entryDx=0;entryDy=0;entryPerimeter=0;" edge="1" parent="1" source="td-_Ye8Xfd8cVU-KX_9y-12" target="VYh9u7z4FJAAEZbo5EUL-2">
          <mxGeometry relative="1" as="geometry" />
        </mxCell>
        <mxCell id="td-_Ye8Xfd8cVU-KX_9y-12" value="학원도착" style="rounded=1;whiteSpace=wrap;html=1;absoluteArcSize=1;arcSize=14;strokeWidth=2;" vertex="1" parent="1">
          <mxGeometry x="364" y="840" width="100" height="50" as="geometry" />
        </mxCell>
        <mxCell id="td-_Ye8Xfd8cVU-KX_9y-16" style="edgeStyle=orthogonalEdgeStyle;rounded=0;orthogonalLoop=1;jettySize=auto;html=1;exitX=0.5;exitY=1;exitDx=0;exitDy=0;entryX=1;entryY=0.5;entryDx=0;entryDy=0;" edge="1" parent="1" source="td-_Ye8Xfd8cVU-KX_9y-13" target="td-_Ye8Xfd8cVU-KX_9y-12">
          <mxGeometry relative="1" as="geometry" />
        </mxCell>
        <mxCell id="td-_Ye8Xfd8cVU-KX_9y-13" value="카페가서 &lt;br&gt;음료사기" style="rounded=1;whiteSpace=wrap;html=1;absoluteArcSize=1;arcSize=14;strokeWidth=2;" vertex="1" parent="1">
          <mxGeometry x="550" y="750" width="100" height="50" as="geometry" />
        </mxCell>
      </root>
    </mxGraphModel>
  </diagram>
</mxfile>
